<?xml version="1.0" encoding="UTF-8" standalone="no"?>
<svg
   xmlns:dc="http://purl.org/dc/elements/1.1/"
   xmlns:cc="http://creativecommons.org/ns#"
   xmlns:rdf="http://www.w3.org/1999/02/22-rdf-syntax-ns#"
   xmlns:svg="http://www.w3.org/2000/svg"
   xmlns="http://www.w3.org/2000/svg"
   xmlns:sodipodi="http://sodipodi.sourceforge.net/DTD/sodipodi-0.dtd"
   xmlns:inkscape="http://www.inkscape.org/namespaces/inkscape"
   version="1.1"
   id="Capa_1"
   x="0px"
   y="0px"
   width="44.952px"
   height="44.952px"
   viewBox="0 0 44.952 44.952"
   style="enable-background:new 0 0 44.952 44.952;"
   xml:space="preserve"
   sodipodi:docname="right-arrow.svg"
   inkscape:version="1.0.2 (e86c870879, 2021-01-15, custom)"><metadata
   id="metadata41"><rdf:RDF><cc:Work
       rdf:about=""><dc:format>image/svg+xml</dc:format><dc:type
         rdf:resource="http://purl.org/dc/dcmitype/StillImage" /><dc:title></dc:title></cc:Work></rdf:RDF></metadata><defs
   id="defs39" /><sodipodi:namedview
   pagecolor="#ffffff"
   bordercolor="#666666"
   borderopacity="1"
   objecttolerance="10"
   gridtolerance="10"
   guidetolerance="10"
   inkscape:pageopacity="0"
   inkscape:pageshadow="2"
   inkscape:window-width="1440"
   inkscape:window-height="837"
   id="namedview37"
   showgrid="false"
   inkscape:zoom="6.9852287"
   inkscape:cx="24.46751"
   inkscape:cy="23.789714"
   inkscape:window-x="-8"
   inkscape:window-y="-8"
   inkscape:window-maximized="1"
   inkscape:current-layer="Capa_1" />
<g
   id="g4"
   style="fill:#ffffff"
   transform="rotate(180,22.476,22.476)">
	<path
   d="m 44.952,22.108 c 0,-1.25 -0.478,-2.424 -1.362,-3.308 L 30.627,5.831 c -0.977,-0.977 -2.561,-0.977 -3.536,0 -0.978,0.977 -0.976,2.568 0,3.546 l 10.574,10.57 H 2.484 C 1.102,19.948 0,21.081 0,22.464 c 0,0.003 0,0.025 0,0.028 0,1.382 1.102,2.523 2.484,2.523 H 37.666 L 27.094,35.579 c -0.978,0.978 -0.978,2.564 0,3.541 0.977,0.979 2.561,0.978 3.538,-10e-4 L 43.59,26.149 c 0.885,-0.882 1.362,-2.059 1.362,-3.309 0,-0.123 0,-0.609 0,-0.732 z"
   id="path2"
   style="fill:#ffffff" />
</g>
<g
   id="g6">
</g>
<g
   id="g8">
</g>
<g
   id="g10">
</g>
<g
   id="g12">
</g>
<g
   id="g14">
</g>
<g
   id="g16">
</g>
<g
   id="g18">
</g>
<g
   id="g20">
</g>
<g
   id="g22">
</g>
<g
   id="g24">
</g>
<g
   id="g26">
</g>
<g
   id="g28">
</g>
<g
   id="g30">
</g>
<g
   id="g32">
</g>
<g
   id="g34">
</g>
</svg>
