<svg id="Layer_1" enable-background="new 0 0 512 512" height="512" viewBox="0 0 512 512" width="512" xmlns="http://www.w3.org/2000/svg"><g><path d="m375.175 258.65-112.467-56.234c-4.223-2.111-9.193-2.111-13.416 0l-112.467 56.234c-5.082 2.541-8.292 7.735-8.292 13.417s3.21 10.875 8.292 13.417l80.333 40.167c2.083 1.042 4.379 1.583 6.708 1.583h64.267c2.329 0 4.625-.542 6.708-1.583l80.333-40.167c5.082-2.541 8.292-7.735 8.292-13.417s-3.209-10.876-8.291-13.417z" fill="#ff508c"/><path d="m288.133 327.233c2.329 0 4.625-.542 6.708-1.583l80.333-40.167c5.082-2.541 8.292-7.735 8.292-13.417s-3.21-10.875-8.292-13.417l-112.467-56.234c-2.111-1.056-4.41-1.584-6.708-1.584v126.4h32.134z" fill="#e60073"/><circle cx="256" cy="143.533" fill="#ffd2c8" r="111.4"/><path d="m256 32.133c61.524 0 111.4 49.875 111.4 111.4s-49.875 111.4-111.4 111.4z" fill="#ffb4b4"/><path d="m256 0c-61.524 0-111.4 49.875-111.4 111.4v32.133c61.524 0 111.4-49.875 111.4-111.4 0 61.524 49.875 111.4 111.4 111.4v-32.133c0-61.525-49.876-111.4-111.4-111.4z" fill="#4b0a37"/><path d="m256 32.133c0 61.524 49.875 111.4 111.4 111.4v-32.133c0-61.525-49.876-111.4-111.4-111.4z" fill="#230519"/><path d="m230.575 298.817-128.533-64.267c-4.65-2.325-10.171-2.078-14.594.657-4.422 2.733-7.114 7.561-7.114 12.76v184.766c0 5.682 3.21 10.875 8.292 13.417l128.533 64.267c4.65 2.325 10.171 2.078 14.594-.657 4.422-2.733 7.114-7.561 7.114-12.76v-184.767c0-5.681-3.21-10.875-8.292-13.416z" fill="#41d7ff"/><path d="m95.333 407.567h-32.133c-8.284 0-15-6.716-15-15v-80.333c0-8.284 6.716-15 15-15h32.133c30.419 0 55.167 24.748 55.167 55.167s-24.748 55.166-55.167 55.166z" fill="#ffd2c8"/><path d="m281.425 298.817 128.533-64.267c4.65-2.325 10.171-2.078 14.594.657 4.422 2.733 7.114 7.561 7.114 12.76v184.766c0 5.682-3.21 10.875-8.292 13.417l-128.533 64.267c-4.65 2.325-10.171 2.078-14.594-.657-4.422-2.733-7.114-7.561-7.114-12.76v-184.767c0-5.681 3.21-10.875 8.292-13.416z" fill="#00b9e1"/><path d="m416.667 407.567h32.133c8.284 0 15-6.716 15-15v-80.333c0-8.284-6.716-15-15-15h-32.133c-30.419 0-55.167 24.748-55.167 55.167s24.748 55.166 55.167 55.166z" fill="#ffb4b4"/><path d="m223.867 295.463h64.267v216.537h-64.267z" fill="#00b9e1"/><path d="m256 295.463h32.133v216.537h-32.133z" fill="#0097cd"/></g></svg>