<svg id="Layer_1" enable-background="new 0 0 512 512" height="512" viewBox="0 0 512 512" width="512" xmlns="http://www.w3.org/2000/svg"><g><path d="m46.328 393.803 314.569 94.654c24.07-11.421 45.981-26.647 64.956-44.907l39.82-49.747c22.42-36.992 35.33-80.391 35.33-126.806 0-135.311-109.691-245.002-245.002-245.002s-245.003 109.692-245.003 245.003c0 46.415 12.909 89.813 35.33 126.805z" fill="#73c3f9"/><path d="m292.161 31.542v-15.352c0-8.904-7.285-16.19-16.19-16.19-12.142 0-18.449 7.285-18.449 16.19v15.352z" fill="#ff7186"/><path d="m440.785 29.282h-128.042l.372.238c-2.392 2.504-6.923 8.217-7.25 15.823-.264 6.123 2.254 12.081 7.483 17.728-2.465 2.302-7.692 8.09-8.223 16.183-.404 6.181 2.017 12.311 7.202 18.256l-109.183 9.688v308.244l258.842-15.757c1.254-1.943 2.485-3.901 3.685-5.881v-339.634c.001-13.688-11.198-24.888-24.886-24.888z" fill="#6289cc"/><path d="m315.526 29.282h-112.381v79.422l112.381-9.972c-20.121-20.121 0-35.564 0-35.564-18.403-18.402 0-33.886 0-33.886z" fill="#3c58a0"/><path d="m423.018 63.169h-109.771c-2.502 2.361-7.598 8.097-8.121 16.085-.404 6.181 2.017 12.311 7.202 18.256l-69.649 6.18v249.469c0 4.842 3.926 8.768 8.768 8.768h171.571c4.842 0 8.768-3.926 8.768-8.768v-281.222c0-4.843-3.925-8.768-8.768-8.768z" fill="#3c58a0"/><path d="m315.526 63.169h-64.079c-4.842 0-8.768 3.926-8.768 8.768v33.259l72.847-6.464c-20.121-20.121 0-35.563 0-35.563z" fill="#2a428c"/><path d="m206.11 29.282h-30.12c-13.688 0-24.887 11.199-24.887 24.887v363.582l55.007-2.442z" fill="#2a428c"/><path d="m458.165 391.952h-281.262c-14.19 0-25.799 11.61-25.799 25.799 0 14.19 11.61 25.799 25.799 25.799h248.95c14.824-14.265 27.852-30.381 38.72-47.973-1.321-2.166-3.699-3.625-6.408-3.625z" fill="#e9efff"/><path d="m384.878 155.908h-100.938c-6.846 0-12.448-5.601-12.448-12.448v-32.28c0-6.846 5.602-12.448 12.448-12.448h100.938c6.846 0 12.448 5.602 12.448 12.448v32.28c0 6.846-5.602 12.448-12.448 12.448z" fill="#e9efff"/><path d="m244.721 0c-8.904 0-16.19 7.285-16.19 16.19v45.818c3.458 4.913 9.161 8.132 15.626 8.132 6.464 0 12.167-3.221 15.625-8.135.001-26.347.008-46.465.04-46.903l.014.014c.557-8.364 7.555-15.116 16.135-15.116z" fill="#f9a0b1"/><g><path d="m259.783 51.029c-.003 8.628-6.997 15.627-15.626 15.627-8.63 0-15.626-6.996-15.626-15.626v46.76c0 8.63 6.996 15.626 15.626 15.626s15.626-7.003 15.626-15.633c-.001-16.578-.002-32.98 0-46.754z" fill="#ff7186"/></g><path d="m187.385 99.991v-15.352c0-8.905-7.285-16.19-16.19-16.19-12.142 0-18.449 7.285-18.449 16.19v15.352z" fill="#ffb332"/><path d="m336.009 97.732h-132.002c-2.23 2.417-7.088 8.59-7.285 16.708-.145 5.993 2.287 11.739 7.229 17.097-2.694 2.564-8.888 9.414-8.958 18.245-.05 6.327 3.051 12.293 9.22 17.748-2.815 5.427-13.744 29.714.104 56.636-2.284 2.903-9.324 13.355-9.324 31.835v94.75l.023.265c.149.831 3.726 19.985 17.519 25.601v24.324c-1.694 1.77-7.286 8.235-7.091 16.281.117 4.802 2.264 9.229 6.388 13.183-2.483 2.526-7.818 8.866-7.57 16.496.163 5 2.679 9.568 7.484 13.6-2.505 2.501-7.928 8.627-10.708 17.142l159.858-9.731v-345.293c0-13.688-11.199-24.887-24.887-24.887z" fill="#d1714b"/><path d="m206.11 97.732h-107.741v356.811c12.119 10.197 25.239 19.24 39.194 26.962l65.105-3.963c3.635-10.474 11.366-17.14 11.366-17.14-18.632-14.015 0-30.026 0-30.026-15.965-13.707 0-28.818 0-28.818v-25.979c-13.965-4.838-17.542-24.829-17.542-24.829s0-73.5 0-94.75 9.618-31.643 9.618-31.643c-16.223-30.393 0-57.175 0-57.175-21.64-18.069 0-35.564 0-35.564-17.76-17.761 0-33.886 0-33.886z" fill="#bc6242"/><path d="m318.242 131.618h-114.374c-2.734 2.621-8.805 9.417-8.875 18.163-.05 6.327 3.051 12.293 9.22 17.748-2.815 5.427-13.744 29.714.104 56.636-2.284 2.903-9.324 13.355-9.324 31.835v94.75l.023.265c.149.831 3.726 19.985 17.519 25.601v24.324c-1.694 1.77-7.286 8.235-7.091 16.281.116 4.791 2.256 9.209 6.362 13.155h106.437c4.842 0 8.768-3.926 8.768-8.768v-281.222c-.001-4.843-3.926-8.768-8.769-8.768z" fill="#bc6242"/><path d="m206.11 131.618h-59.439c-4.842 0-8.768 3.926-8.768 8.768v281.222c0 4.842 3.926 8.768 8.768 8.768h67.363c-15.965-13.707 0-28.818 0-28.818v-25.979c-13.965-4.838-17.542-24.829-17.542-24.829s0-73.5 0-94.75 9.618-31.643 9.618-31.643c-16.223-30.393 0-57.175 0-57.175-21.639-18.069 0-35.564 0-35.564z" fill="#a5533a"/><path d="m46.328 122.619v271.185c14.608 24.102 33.26 45.476 55.007 63.199v-359.271h-30.12c-13.688 0-24.887 11.199-24.887 24.887z" fill="#a5533a"/><path d="m353.389 460.402h-141.75c.038.032.069.065.107.097-3.348 3.343-11.909 13.154-12.404 26.496-.249 6.711 1.603 13.284 5.495 19.648 16.501 3.507 33.616 5.357 51.163 5.357 37.538 0 73.097-8.454 104.896-23.543v-20.548c0-4.129-3.378-7.507-7.507-7.507z" fill="#e9efff"/><path d="m206.871 507.057c-16.962-25.862 7.164-46.655 7.164-46.655h-108.439c29.193 22.735 63.67 38.997 101.275 46.655z" fill="#bec8f7"/><path d="m245.231 401.558h-31.197c-7.144 0-12.99-5.845-12.99-12.99 0-7.144 5.845-12.99 12.99-12.99h31.197c7.144 0 12.989 5.845 12.989 12.99.001 7.144-5.845 12.99-12.989 12.99z" fill="#d1714b"/><path d="m139.945 68.449c-8.904 0-16.19 7.285-16.19 16.19v42.344c2.8 5.82 8.735 9.848 15.626 9.848 6.89 0 12.824-4.03 15.625-9.852.001-24.622.009-43.011.04-43.429l.015.015c.557-8.363 7.555-15.115 16.135-15.115h-31.251z" fill="#ffdd40"/><g><path d="m155.007 119.479c-.003 8.627-6.997 15.627-15.626 15.627-8.63 0-15.626-6.996-15.626-15.626v46.759c0 8.63 6.996 15.626 15.626 15.626s15.626-7.003 15.626-15.633c-.001-16.577-.002-32.979 0-46.753z" fill="#ffb332"/></g><path d="m280.102 167.181h-76.268c.128.116.249.233.379.348-2.815 5.427-13.744 29.714.104 56.636-.043.055-.099.131-.146.192h75.931c6.846 0 12.448-5.602 12.448-12.448v-32.28c0-6.846-5.602-12.448-12.448-12.448z" fill="#e9efff"/><path d="m179.164 167.181c-6.846 0-12.448 5.602-12.448 12.448v32.28c0 6.846 5.601 12.448 12.448 12.448h26.947c-16.223-30.393 0-57.175 0-57.175h-26.947z" fill="#bec8f7"/></g></svg>