<?xml version="1.0" encoding="UTF-8" standalone="no"?>
<svg
   xmlns:dc="http://purl.org/dc/elements/1.1/"
   xmlns:cc="http://creativecommons.org/ns#"
   xmlns:rdf="http://www.w3.org/1999/02/22-rdf-syntax-ns#"
   xmlns:svg="http://www.w3.org/2000/svg"
   xmlns="http://www.w3.org/2000/svg"
   xmlns:sodipodi="http://sodipodi.sourceforge.net/DTD/sodipodi-0.dtd"
   xmlns:inkscape="http://www.inkscape.org/namespaces/inkscape"
   version="1.1"
   id="Capa_1"
   x="0px"
   y="0px"
   width="45.916px"
   height="45.916px"
   viewBox="0 0 45.916 45.916"
   style="enable-background:new 0 0 45.916 45.916;"
   xml:space="preserve"
   sodipodi:docname="profile-user-1.svg"
   inkscape:version="1.0.2 (e86c870879, 2021-01-15, custom)"><metadata
   id="metadata43"><rdf:RDF><cc:Work
       rdf:about=""><dc:format>image/svg+xml</dc:format><dc:type
         rdf:resource="http://purl.org/dc/dcmitype/StillImage" /><dc:title></dc:title></cc:Work></rdf:RDF></metadata><defs
   id="defs41" /><sodipodi:namedview
   pagecolor="#ffffff"
   bordercolor="#666666"
   borderopacity="1"
   objecttolerance="10"
   gridtolerance="10"
   guidetolerance="10"
   inkscape:pageopacity="0"
   inkscape:pageshadow="2"
   inkscape:window-width="721"
   inkscape:window-height="480"
   id="namedview39"
   showgrid="false"
   inkscape:zoom="3.4192874"
   inkscape:cx="-16.098517"
   inkscape:cy="11.997681"
   inkscape:window-x="0"
   inkscape:window-y="0"
   inkscape:window-maximized="0"
   inkscape:current-layer="Capa_1" />
<g
   id="g6"
   style="fill:#ffffff">
	<g
   id="g4"
   style="fill:#ffffff">
		<path
   d="m 30.061,18.237 c 2.127,-1.916 3.476,-4.683 3.476,-7.772 C 33.536,4.684 28.85,0 23.07,0 17.29,0 12.604,4.685 12.604,10.465 c 0,3.085 1.343,5.85 3.467,7.766 -5.441,0.422 -9.74,4.928 -9.779,10.477 L 6.224,40.154 c -0.01,1.525 0.59,2.99 1.665,4.072 1.075,1.08 2.537,1.689 4.062,1.689 h 10.151 11.794 c 3.15,0 5.709,-2.543 5.729,-5.693 l 0.068,-11.361 c 0.021,-2.826 -1.089,-5.538 -3.083,-7.544 -1.759,-1.774 -4.084,-2.852 -6.549,-3.08 z"
   id="path2"
   style="fill:#ffffff" />
	</g>
</g>
<g
   id="g8">
</g>
<g
   id="g10">
</g>
<g
   id="g12">
</g>
<g
   id="g14">
</g>
<g
   id="g16">
</g>
<g
   id="g18">
</g>
<g
   id="g20">
</g>
<g
   id="g22">
</g>
<g
   id="g24">
</g>
<g
   id="g26">
</g>
<g
   id="g28">
</g>
<g
   id="g30">
</g>
<g
   id="g32">
</g>
<g
   id="g34">
</g>
<g
   id="g36">
</g>
</svg>
