<?xml version="1.0" encoding="UTF-8" standalone="no"?>
<svg
   xmlns:dc="http://purl.org/dc/elements/1.1/"
   xmlns:cc="http://creativecommons.org/ns#"
   xmlns:rdf="http://www.w3.org/1999/02/22-rdf-syntax-ns#"
   xmlns:svg="http://www.w3.org/2000/svg"
   xmlns="http://www.w3.org/2000/svg"
   xmlns:sodipodi="http://sodipodi.sourceforge.net/DTD/sodipodi-0.dtd"
   xmlns:inkscape="http://www.inkscape.org/namespaces/inkscape"
   version="1.1"
   id="Capa_1"
   x="0px"
   y="0px"
   viewBox="0 0 477.867 477.867"
   style="enable-background:new 0 0 477.867 477.867;"
   xml:space="preserve"
   sodipodi:docname="sair1.svg"
   inkscape:version="1.0.2 (e86c870879, 2021-01-15, custom)"><metadata
   id="metadata49"><rdf:RDF><cc:Work
       rdf:about=""><dc:format>image/svg+xml</dc:format><dc:type
         rdf:resource="http://purl.org/dc/dcmitype/StillImage" /><dc:title></dc:title></cc:Work></rdf:RDF></metadata><defs
   id="defs47" /><sodipodi:namedview
   pagecolor="#ffffff"
   bordercolor="#666666"
   borderopacity="1"
   objecttolerance="10"
   gridtolerance="10"
   guidetolerance="10"
   inkscape:pageopacity="0"
   inkscape:pageshadow="2"
   inkscape:window-width="1440"
   inkscape:window-height="837"
   id="namedview45"
   showgrid="false"
   inkscape:zoom="0.32854329"
   inkscape:cx="-416.17969"
   inkscape:cy="212.0221"
   inkscape:window-x="-8"
   inkscape:window-y="-8"
   inkscape:window-maximized="1"
   inkscape:current-layer="Capa_1" />
















<g
   id="g1842"
   style="fill:#ff6347;fill-opacity:1"><g
     id="g6"
     style="fill:#ff6347;fill-opacity:1">
	<g
   id="g4"
   style="fill:#ff6347;fill-opacity:1">
		<path
   id="path2"
   d="M 426.657,0 C 350.95855,0.17491774 275.24243,-0.35070724 199.55509,0.2643396 169.86386,2.3781679 149.83269,32.317661 153.59,60.661072 c 0.22598,32.120639 -0.45537,64.286898 0.34673,96.378568 4.45322,23.0889 39.79458,12.99812 33.78727,-8.84597 0.22637,-33.4722 -0.4559,-66.990081 0.34673,-100.433311 4.19527,-17.989113 24.73635,-12.925886 38.34558,-13.627359 67.88797,0.231119 135.82241,-0.462274 203.68133,0.346734 17.98911,4.195266 12.92589,24.736349 13.62736,38.345572 0,117.947234 0,235.894464 0,353.841694 0.0119,17.41025 -19.08016,18.0569 -31.9344,17.067 -70.14094,-0.23112 -140.32836,0.46228 -210.44024,-0.34673 -17.98911,-4.19527 -12.92589,-24.73635 -13.62736,-38.34558 -0.22447,-28.06597 0.45334,-56.1773 -0.34673,-84.21433 -4.45322,-23.0889 -39.79458,-12.99812 -33.78727,8.84597 0.57748,35.7559 -1.22668,71.66291 1.0402,107.31226 4.79854,27.43033 33.09382,44.14218 59.62087,40.88141 72.54476,-0.1748 145.10718,0.35055 217.64084,-0.26434 29.69123,-2.11383 49.7224,-32.05332 45.96509,-60.39673 C 477.68083,293.46118 478.20696,169.69875 477.59184,45.965094 475.47543,20.501073 452.22036,-0.51039326 426.657,0 Z"
   style="fill:#ff6347;fill-opacity:1" />
	</g>
</g><g
     id="g12"
     style="fill:#ff6347;fill-opacity:1">
	<g
   id="g10"
   style="fill:#ff6347;fill-opacity:1">
		<path
   id="path8"
   d="m 341.323,221.867 c -94.35567,0 -188.71133,0 -283.067,0 19.351928,-19.72314 39.494274,-38.74394 58.34103,-58.91595 12.71419,-19.3334 -18.923391,-36.90542 -30.094903,-17.59422 -27.795084,28.1073 -56.246791,55.62029 -83.630502,84.09992 -9.8553097,15.71046 8.262724,26.72078 17.427776,36.85165 24.290749,24.02212 48.065969,48.60448 72.680427,72.27482 18.696132,13.42116 37.659652,-17.61068 18.626062,-29.23238 C 93.822592,291.56722 76.039296,273.78361 58.256,256 c 95.49675,-0.23089 191.03994,0.46196 286.50764,-0.34673 19.80667,-3.62762 16.74421,-34.18319 -3.44064,-33.78627 z"
   style="fill:#ff6347;fill-opacity:1" />
	</g>
</g><g
     id="g14"
     style="fill:#ff6347;fill-opacity:1">
</g><g
     id="g16"
     style="fill:#ff6347;fill-opacity:1">
</g><g
     id="g18"
     style="fill:#ff6347;fill-opacity:1">
</g><g
     id="g20"
     style="fill:#ff6347;fill-opacity:1">
</g><g
     id="g22"
     style="fill:#ff6347;fill-opacity:1">
</g><g
     id="g24"
     style="fill:#ff6347;fill-opacity:1">
</g><g
     id="g26"
     style="fill:#ff6347;fill-opacity:1">
</g><g
     id="g28"
     style="fill:#ff6347;fill-opacity:1">
</g><g
     id="g30"
     style="fill:#ff6347;fill-opacity:1">
</g><g
     id="g32"
     style="fill:#ff6347;fill-opacity:1">
</g><g
     id="g34"
     style="fill:#ff6347;fill-opacity:1">
</g><g
     id="g36"
     style="fill:#ff6347;fill-opacity:1">
</g><g
     id="g38"
     style="fill:#ff6347;fill-opacity:1">
</g><g
     id="g40"
     style="fill:#ff6347;fill-opacity:1">
</g><g
     id="g42"
     style="fill:#ff6347;fill-opacity:1">
</g></g>
</svg>
