<svg id="Capa_1" enable-background="new 0 0 497 497" height="512" viewBox="0 0 497 497" width="512" xmlns="http://www.w3.org/2000/svg"><g><path d="m413.5 0-225 347h247.5c4.142 0 7.5-3.358 7.5-7.5v-332c0-4.142-3.358-7.5-7.5-7.5z" fill="#ffeac3"/><path d="m158.5 7.5v339.5l255-309.5v-37.5h-247.5c-4.142 0-7.5 3.358-7.5 7.5z" fill="#fff7e8"/><path d="m413.5 37.5v339.5l-90 45v-362l60-30h22.5c4.142 0 7.5 3.358 7.5 7.5z" fill="#53a143"/><path d="m53.5 75v347h105l-60-392c-24.85 0-45 20.15-45 45z" fill="#85cf75"/><path d="m98.5 30h285v392h-285z" fill="#60ba4d"/><path d="m323.5 90-112.966 106 112.966 106h30v-212z" fill="#408d69"/><path d="m158.5 90v212h165v-120l-30-30 30-32v-30z" fill="#53a143"/><path d="m293.5 182-30-32 30-30h30v62z" fill="#ffd17e"/><path d="m188.5 120h105v62h-105z" fill="#ffeac3"/><path d="m413.5 377h-30l-95.638 60 95.638 60h22.5c4.142 0 7.5-3.358 7.5-7.5v-22.5l-42.43-30 42.43-30z" fill="#408d69"/><path d="m98.5 377c-24.85 0-45 20.15-45 45v30c0 24.85 20.15 45 45 45h285v-120z" fill="#53a143"/><path d="m98.496 422h285.004v45h-285.004z" fill="#fff7e8"/><path d="m98.496 407h285.004v30h-285.004z" fill="#fff"/><path d="m413.5 467h-30c-8.29-8.28-12.43-19.14-12.43-30l15-15 15 15c0 10.86 4.14 21.72 12.43 30z" fill="#ffeac3"/><path d="m383.5 407h30c-8.29 8.28-12.43 19.14-12.43 30h-30c0-10.86 4.14-21.72 12.43-30z" fill="#fff7e8"/><path d="m98.5 407c-8.284 0-15 6.716-15 15v30c0 8.284 6.716 15 15 15s15-6.716 15-15v-30c0-8.284-6.716-15-15-15z" fill="#3d5168"/><path d="m293.5 157.5h-75c-4.142 0-7.5-3.358-7.5-7.5s3.358-7.5 7.5-7.5h75c4.142 0 7.5 3.358 7.5 7.5s-3.358 7.5-7.5 7.5z" fill="#ffb739"/></g></svg>